<svg width="1234" height="558" viewBox="0 0 1234 558" fill="none" xmlns="http://www.w3.org/2000/svg">
<g clip-path="url(#clip0_133_49)">
<path fill-rule="evenodd" clip-rule="evenodd" d="M-395.305 -198H588.95V-196.456H-395.305V-198ZM144.446 -103.923V-172.128H145.99V-103.923H238.519V-172.128H240.062V-103.923H332.594V-172.127H334.137V-103.923H426.67V-172.127H428.214V-103.923H520.747V-172.127H522.291V-103.923H588.951V-102.379L522.291 -102.38V-9.8483H588.952V-8.30461H522.291V84.227H588.952V85.7707H522.291V178.302H588.951V179.846H522.291V272.376H588.951V273.92H522.291V366.45H588.952V367.994H522.291V460.524H588.951V462.068H522.291V554.594H588.95V556.138H522.291V648.668H588.952V650.212H522.291V742.747H588.952V744.291H522.291V812.126H520.747V744.291H428.214V812.126H426.67V744.291H334.137V812.126H332.594V744.291H240.062V812.126H238.518V744.291H145.99V812.126H144.446V744.291H51.9149V812.126H50.3713V744.291H-42.1595V812.126H-43.7032V744.291H-136.234V812.126H-137.777V744.291H-230.308V812.126H-231.852V744.291H-324.382V812.126H-325.926V744.291H-395.303V742.747H-325.926V650.212H-395.303V648.668H-325.926V556.137H-395.305V554.594H-325.926V462.068H-395.304V460.524H-325.926V367.994H-395.303V366.45H-325.926V273.92H-395.304V272.376H-325.926V179.845H-395.304V178.302H-325.926V85.7706H-395.303V84.2269H-325.926V-8.30469H-395.303V-9.84839H-325.926V-102.38H-395.304V-103.923H-325.926V-172.128H-324.382V-103.923H-231.852V-172.128H-230.308V-103.923H-137.777V-172.128H-136.234V-103.923H-43.7031V-172.127H-42.1594V-103.923H50.3713V-172.127H51.915V-103.923H144.446ZM520.747 650.212V742.747H428.214V650.212H520.747ZM426.67 650.212V742.747H334.137V650.212H426.67ZM332.594 650.212V742.747H240.062V650.212H332.594ZM238.519 650.212L238.518 742.747H145.99V650.212H238.519ZM144.446 650.212V742.747H51.9149L51.915 650.212H144.446ZM50.3713 650.212V742.747H-42.1595V650.212H50.3713ZM-43.7031 650.212L-43.7032 742.747H-136.234V650.212H-43.7031ZM-137.777 650.212V742.747H-230.308V650.212H-137.777ZM-231.852 650.212V742.747H-324.382V650.212H-231.852ZM-324.382 648.668H-231.852V556.137H-324.382V648.668ZM-230.308 648.668H-137.777V556.138L-230.308 556.137V648.668ZM-136.234 648.668H-43.7031V556.138H-136.234V648.668ZM-42.1595 648.668H50.3713V556.138H-42.1595V648.668ZM51.915 648.668H144.446V556.138H51.915V648.668ZM145.99 648.668H238.519V556.138H145.99V648.668ZM240.062 648.668H332.594V556.138H240.062V648.668ZM334.137 648.668H426.67V556.138H334.137V648.668ZM428.214 648.668H520.747V556.138H428.214V648.668ZM520.747 462.068V554.594H428.214V462.068H520.747ZM426.67 462.068V554.594H334.137V462.068H426.67ZM332.594 462.068V554.594H240.062V462.068H332.594ZM238.519 462.068V554.594H145.99V462.068H238.519ZM144.446 462.068V554.594H51.915V462.068H144.446ZM50.3713 462.068V554.594H-42.1595L-42.1594 462.068H50.3713ZM-43.7031 462.068V554.594H-136.234V462.068H-43.7031ZM-137.777 462.068V554.594H-230.308V462.068H-137.777ZM-231.852 462.068V554.594H-324.382V462.068H-231.852ZM-324.382 460.524H-231.852V367.994H-324.382V460.524ZM-230.308 460.524H-137.777V367.994H-230.308V460.524ZM-136.234 460.524H-43.7031V367.994H-136.234V460.524ZM-42.1594 460.524H50.3713V367.994H-42.1594V460.524ZM51.915 460.524H144.446V367.994H51.915V460.524ZM145.99 460.524H238.519V367.994H145.99V460.524ZM240.062 460.524H332.594V367.994H240.062V460.524ZM334.137 460.524H426.67V367.994H334.137V460.524ZM428.214 460.524H520.747V367.994H428.214V460.524ZM520.747 273.92V366.45H428.214V273.92H520.747ZM426.67 273.92V366.45H334.137V273.92H426.67ZM332.594 273.92V366.45H240.062V273.92H332.594ZM238.519 273.92V366.45H145.99V273.92H238.519ZM144.446 273.92V366.45H51.915V273.92H144.446ZM50.3713 273.92V366.45H-42.1594V273.92H50.3713ZM-43.7031 273.92V366.45H-136.234V273.92H-43.7031ZM-137.777 273.92V366.45H-230.308V273.92H-137.777ZM-231.852 273.92V366.45H-324.382V273.92H-231.852ZM-324.382 272.376H-231.852V179.845H-324.382V272.376ZM-230.308 272.376H-137.777V179.845H-230.308V272.376ZM-136.234 272.376H-43.7031V179.845H-136.234V272.376ZM-42.1594 272.376H50.3713V179.845H-42.1594V272.376ZM51.915 272.376H144.446V179.845H51.915V272.376ZM145.99 272.376H238.519V179.845H145.99V272.376ZM240.062 272.376H332.594V179.845H240.062V272.376ZM334.137 272.376H426.67V179.846L334.137 179.845V272.376ZM428.214 272.376H520.747V179.846H428.214V272.376ZM520.747 85.7707V178.302H428.214V85.7707H520.747ZM426.67 85.7707V178.302H334.137V85.7706L426.67 85.7707ZM332.594 85.7706V178.302H240.062V85.7706H332.594ZM238.519 85.7706V178.302H145.99V85.7706H238.519ZM144.446 85.7706V178.302H51.915V85.7706H144.446ZM50.3713 85.7706V178.302H-42.1594V85.7706H50.3713ZM-43.7031 85.7706V178.302H-136.234V85.7706H-43.7031ZM-137.777 85.7706V178.302H-230.308V85.7706H-137.777ZM-231.852 85.7706V178.302H-324.382V85.7706H-231.852ZM-324.382 84.2269H-231.852V-8.30467L-324.382 -8.30469V84.2269ZM-230.308 84.2269H-137.777V-8.30467H-230.308V84.2269ZM-136.234 84.2269H-43.7031V-8.30466L-136.234 -8.30467V84.2269ZM-42.1594 84.2269H50.3713V-8.30466H-42.1594V84.2269ZM51.915 84.2269H144.446V-8.30464L51.915 -8.30466V84.2269ZM145.99 84.2269H238.519V-8.30464H145.99V84.2269ZM240.062 84.2269H332.594V-8.30463L240.062 -8.30464V84.2269ZM334.137 84.2269L426.67 84.227V-8.30463H334.137V84.2269ZM428.214 84.227H520.747V-8.30461L428.214 -8.30463V84.227ZM520.747 -102.38V-9.8483L428.214 -9.84831V-102.38H520.747ZM426.67 -102.38V-9.84831L334.137 -9.84833V-102.38H426.67ZM332.594 -102.38V-9.84833H240.062V-102.38H332.594ZM238.519 -102.38V-9.84833L145.99 -9.84834V-102.38H238.519ZM144.446 -102.38V-9.84834H51.915V-102.38H144.446ZM50.3713 -102.38V-9.84834L-42.1594 -9.84836V-102.38H50.3713ZM-43.7031 -102.38V-9.84836H-136.234V-102.38H-43.7031ZM-137.777 -102.38V-9.84836L-230.308 -9.84837V-102.38H-137.777ZM-231.852 -102.38V-9.84837L-324.382 -9.84839V-102.38H-231.852ZM-420 -172.128V812.126H-418.456V-172.128H-420ZM614.823 -172.127V812.126H616.367V-172.127H614.823ZM588.951 836.823H-395.304V838.366H588.951V836.823Z" fill="url(#paint0_radial_133_49)" fill-opacity="0.2"/>
<path d="M145.712 338V424.907" stroke="url(#paint1_linear_133_49)" stroke-width="1.42471"/>
</g>
<g clip-path="url(#clip1_133_49)">
<path fill-rule="evenodd" clip-rule="evenodd" d="M641.695 -198H1625.95V-196.456H641.695V-198ZM1181.45 -103.923V-172.128H1182.99V-103.923H1275.52V-172.128H1277.06V-103.923H1369.59V-172.127H1371.14V-103.923H1463.67V-172.127H1465.21V-103.923H1557.75V-172.127H1559.29V-103.923H1625.95V-102.379L1559.29 -102.38V-9.8483H1625.95V-8.30461H1559.29V84.227H1625.95V85.7707H1559.29V178.302H1625.95V179.846H1559.29V272.376H1625.95V273.92H1559.29V366.45H1625.95V367.994H1559.29V460.524H1625.95V462.068H1559.29V554.594H1625.95V556.138H1559.29V648.668H1625.95V650.212H1559.29V742.747H1625.95V744.291H1559.29V812.126H1557.75V744.291H1465.21V812.126H1463.67V744.291H1371.14V812.126H1369.59V744.291H1277.06V812.126H1275.52V744.291H1182.99V812.126H1181.45V744.291H1088.92V812.126H1087.37V744.291H994.841V812.126H993.297V744.291H900.766V812.126H899.223V744.291H806.692V812.126H805.148V744.291H712.618V812.126H711.074V744.291H641.697V742.747H711.074V650.212H641.697V648.668H711.074V556.137H641.695V554.594H711.074V462.068H641.696V460.524H711.074V367.994H641.697V366.45H711.074V273.92H641.696V272.376H711.074V179.845H641.696V178.302H711.074V85.7706H641.697V84.2269H711.074V-8.30469H641.697V-9.84839H711.074L711.074 -102.38H641.696V-103.923H711.074V-172.128H712.618V-103.923H805.148V-172.128H806.692V-103.923H899.223V-172.128H900.766V-103.923H993.297V-172.127H994.841V-103.923H1087.37V-172.127H1088.92V-103.923H1181.45ZM1557.75 650.212V742.747H1465.21V650.212H1557.75ZM1463.67 650.212V742.747H1371.14V650.212H1463.67ZM1369.59 650.212V742.747H1277.06V650.212H1369.59ZM1275.52 650.212L1275.52 742.747H1182.99V650.212H1275.52ZM1181.45 650.212V742.747H1088.92V650.212H1181.45ZM1087.37 650.212V742.747H994.841V650.212H1087.37ZM993.297 650.212V742.747H900.766V650.212H993.297ZM899.223 650.212V742.747H806.692V650.212H899.223ZM805.148 650.212V742.747H712.618V650.212H805.148ZM712.618 648.668H805.148V556.137H712.618V648.668ZM806.692 648.668H899.223V556.138L806.692 556.137V648.668ZM900.766 648.668H993.297V556.138H900.766V648.668ZM994.841 648.668H1087.37V556.138H994.841V648.668ZM1088.92 648.668H1181.45V556.138H1088.92V648.668ZM1182.99 648.668H1275.52V556.138H1182.99V648.668ZM1277.06 648.668H1369.59V556.138H1277.06V648.668ZM1371.14 648.668H1463.67V556.138H1371.14V648.668ZM1465.21 648.668H1557.75V556.138H1465.21V648.668ZM1557.75 462.068V554.594H1465.21V462.068H1557.75ZM1463.67 462.068V554.594H1371.14V462.068H1463.67ZM1369.59 462.068V554.594H1277.06V462.068H1369.59ZM1275.52 462.068V554.594H1182.99V462.068H1275.52ZM1181.45 462.068V554.594H1088.92V462.068H1181.45ZM1087.37 462.068V554.594H994.841V462.068H1087.37ZM993.297 462.068V554.594H900.766V462.068H993.297ZM899.223 462.068V554.594H806.692V462.068H899.223ZM805.148 462.068V554.594H712.618V462.068H805.148ZM712.618 460.524H805.148V367.994H712.618V460.524ZM806.692 460.524H899.223V367.994H806.692V460.524ZM900.766 460.524H993.297V367.994H900.766V460.524ZM994.841 460.524H1087.37V367.994H994.841V460.524ZM1088.92 460.524H1181.45V367.994H1088.92V460.524ZM1182.99 460.524H1275.52V367.994H1182.99V460.524ZM1277.06 460.524H1369.59V367.994H1277.06V460.524ZM1371.14 460.524H1463.67V367.994H1371.14V460.524ZM1465.21 460.524H1557.75V367.994H1465.21V460.524ZM1557.75 273.92V366.45H1465.21V273.92H1557.75ZM1463.67 273.92V366.45H1371.14V273.92H1463.67ZM1369.59 273.92V366.45H1277.06V273.92H1369.59ZM1275.52 273.92V366.45H1182.99V273.92H1275.52ZM1181.45 273.92V366.45H1088.92V273.92H1181.45ZM1087.37 273.92V366.45H994.841V273.92H1087.37ZM993.297 273.92V366.45H900.766V273.92H993.297ZM899.223 273.92V366.45H806.692V273.92H899.223ZM805.148 273.92V366.45H712.618V273.92H805.148ZM712.618 272.376H805.148V179.845H712.618V272.376ZM806.692 272.376H899.223V179.845H806.692V272.376ZM900.766 272.376H993.297V179.845H900.766V272.376ZM994.841 272.376H1087.37V179.845H994.841V272.376ZM1088.92 272.376H1181.45V179.845H1088.92V272.376ZM1182.99 272.376H1275.52V179.845H1182.99V272.376ZM1277.06 272.376H1369.59V179.845H1277.06V272.376ZM1371.14 272.376H1463.67V179.846L1371.14 179.845V272.376ZM1465.21 272.376H1557.75V179.846H1465.21V272.376ZM1557.75 85.7707V178.302H1465.21V85.7707H1557.75ZM1463.67 85.7707V178.302H1371.14V85.7706L1463.67 85.7707ZM1369.59 85.7706V178.302H1277.06V85.7706H1369.59ZM1275.52 85.7706V178.302H1182.99V85.7706H1275.52ZM1181.45 85.7706V178.302H1088.92V85.7706H1181.45ZM1087.37 85.7706V178.302H994.841V85.7706H1087.37ZM993.297 85.7706V178.302H900.766V85.7706H993.297ZM899.223 85.7706V178.302H806.692V85.7706H899.223ZM805.148 85.7706V178.302H712.618V85.7706H805.148ZM712.618 84.2269H805.148V-8.30467L712.618 -8.30469V84.2269ZM806.692 84.2269H899.223V-8.30467H806.692V84.2269ZM900.766 84.2269H993.297V-8.30466L900.766 -8.30467V84.2269ZM994.841 84.2269H1087.37V-8.30466H994.841V84.2269ZM1088.92 84.2269H1181.45V-8.30464L1088.92 -8.30466V84.2269ZM1182.99 84.2269H1275.52V-8.30464H1182.99V84.2269ZM1277.06 84.2269H1369.59V-8.30463L1277.06 -8.30464V84.2269ZM1371.14 84.2269L1463.67 84.227V-8.30463H1371.14V84.2269ZM1465.21 84.227H1557.75V-8.30461L1465.21 -8.30463V84.227ZM1557.75 -102.38V-9.8483L1465.21 -9.84831V-102.38H1557.75ZM1463.67 -102.38V-9.84831L1371.14 -9.84833V-102.38H1463.67ZM1369.59 -102.38V-9.84833H1277.06V-102.38H1369.59ZM1275.52 -102.38V-9.84833L1182.99 -9.84834V-102.38H1275.52ZM1181.45 -102.38V-9.84834H1088.92V-102.38H1181.45ZM1087.37 -102.38V-9.84834L994.841 -9.84836V-102.38H1087.37ZM993.297 -102.38V-9.84836H900.766V-102.38H993.297ZM899.223 -102.38V-9.84836L806.692 -9.84837V-102.38H899.223ZM805.148 -102.38V-9.84837L712.618 -9.84839V-102.38H805.148ZM617 -172.128L617 812.126H618.544L618.544 -172.128H617ZM1651.82 -172.127V812.126H1653.37V-172.127H1651.82ZM1625.95 836.823H641.696V838.366H1625.95V836.823Z" fill="url(#paint2_radial_133_49)" fill-opacity="0.15"/>
<path d="M1140.91 367.712H1054" stroke="url(#paint3_linear_133_49)" stroke-width="1.42471"/>
</g>
<defs>
<radialGradient id="paint0_radial_133_49" cx="0" cy="0" r="1" gradientUnits="userSpaceOnUse" gradientTransform="translate(98.1835 320.183) rotate(90) scale(518.183 518.184)">
<stop stop-color="white"/>
<stop offset="1" stop-color="white" stop-opacity="0"/>
</radialGradient>
<linearGradient id="paint1_linear_133_49" x1="-nan" y1="-nan" x2="-nan" y2="-nan" gradientUnits="userSpaceOnUse">
<stop offset="0.416667" stop-color="#F0F957" stop-opacity="0"/>
<stop offset="0.786458" stop-color="#F0F957"/>
<stop offset="1" stop-color="white"/>
</linearGradient>
<radialGradient id="paint2_radial_133_49" cx="0" cy="0" r="1" gradientUnits="userSpaceOnUse" gradientTransform="translate(1135.18 320.183) rotate(90) scale(518.183 518.184)">
<stop stop-color="white"/>
<stop offset="1" stop-color="white" stop-opacity="0"/>
</radialGradient>
<linearGradient id="paint3_linear_133_49" x1="-nan" y1="-nan" x2="-nan" y2="-nan" gradientUnits="userSpaceOnUse">
<stop offset="0.416667" stop-color="#F0F957" stop-opacity="0"/>
<stop offset="0.786458" stop-color="#F0F957"/>
<stop offset="1" stop-color="white"/>
</linearGradient>
<clipPath id="clip0_133_49">
<rect width="617" height="558" fill="white"/>
</clipPath>
<clipPath id="clip1_133_49">
<rect width="617" height="558" fill="white" transform="translate(617)"/>
</clipPath>
</defs>
</svg>
