<svg width="728" height="669" viewBox="0 0 728 669" fill="none" xmlns="http://www.w3.org/2000/svg">
<g clip-path="url(#clip0_98_16)">
<mask id="mask0_98_16" style="mask-type:luminance" maskUnits="userSpaceOnUse" x="0" y="-243" width="1298" height="912">
<path d="M1297.5 -243H0.5V668.405H1297.5V-243Z" fill="white"/>
</mask>
<g mask="url(#mask0_98_16)">
<path fill-rule="evenodd" clip-rule="evenodd" d="M-19.0855 -243H1213.13V-241.067H-19.0855V-243ZM656.649 -125.222V-210.61H658.582V-125.222H774.423V-210.61H776.356V-125.222H892.196V-210.609H894.129V-125.222H1009.97V-210.609H1011.91V-125.222H1127.75V-210.609H1129.68V-125.222H1213.13V-123.289H1129.68V-7.44685H1213.13V-5.51425L1129.68 -5.51427V110.329H1213.13V112.261H1129.68V228.104H1213.13V230.036H1129.68V345.878H1213.13V347.811H1129.68V463.652H1213.13V465.585H1129.68V581.427H1213.13V583.359H1129.68V699.195H1213.13V701.128H1129.68V816.97H1213.13V818.902H1129.68V934.75H1213.13V936.682H1129.68V1021.61H1127.75V936.682H1011.91V1021.61H1009.97V936.682H894.129V1021.61H892.196V936.682H776.356V1021.61H774.423V936.682H658.582V1021.61H656.649V936.682H540.805V1021.61H538.872V936.682H423.032V1021.61H421.099V936.682H305.257V1021.61H303.324V936.682H187.487V1021.61H185.554V936.682H69.7101V1021.61H67.7775V936.682H-19.0848V934.75H67.7775V818.902H-19.0848V816.969H67.7775V701.128H-19.0856V699.195H67.7775V583.359H-19.0848V581.427H67.7775V465.584H-19.0848V463.652H67.7775V347.811H-19.0848V345.878H67.7775V230.036H-19.0848V228.104H67.7775V112.261H-19.0848V110.329H67.7775V-5.51436L-19.0848 -5.51437V-7.44696H67.7775V-123.289H-19.0848V-125.222H67.7775V-210.61H69.7101V-125.222H185.554V-210.61H187.487V-125.222H303.324V-210.61H305.257V-125.222H421.099V-210.609H423.032V-125.222H538.872V-210.609H540.805V-125.222H656.649ZM1127.75 818.902V934.75H1011.91V818.902H1127.75ZM1009.97 818.902V934.75H894.129V818.902H1009.97ZM892.196 818.902V934.75H776.356V818.902H892.196ZM774.423 818.902V934.75H658.582V818.902H774.423ZM656.649 818.902V934.75H540.805V818.902H656.649ZM538.872 818.902V934.75H423.032V818.902H538.872ZM421.099 818.902V934.75H305.257V818.902H421.099ZM303.324 818.902V934.75H187.487V818.902H303.324ZM185.554 818.902V934.75H69.7101V818.902H185.554ZM69.7101 816.969H185.554V701.128H69.7101V816.969ZM187.487 816.969H303.324V701.128H187.487V816.969ZM305.257 816.969H421.099V701.128H305.257V816.969ZM423.032 816.969H538.872V701.128H423.032V816.969ZM540.805 816.969L656.649 816.97V701.128H540.805V816.969ZM658.582 816.97H774.423V701.128H658.582V816.97ZM776.356 816.97H892.196V701.128H776.356V816.97ZM894.129 816.97H1009.97V701.128H894.129V816.97ZM1011.91 816.97H1127.75V701.128H1011.91V816.97ZM1127.75 583.359V699.195H1011.91V583.359H1127.75ZM1009.97 583.359V699.195H894.129V583.359H1009.97ZM892.196 583.359V699.195H776.356V583.359H892.196ZM774.423 583.359V699.195H658.582V583.359H774.423ZM656.649 583.359V699.195H540.805V583.359H656.649ZM538.872 583.359V699.195H423.032V583.359H538.872ZM421.099 583.359V699.195H305.257V583.359H421.099ZM303.324 583.359V699.195H187.487V583.359H303.324ZM185.554 583.359V699.195H69.7101V583.359H185.554ZM69.7101 581.427H185.554V465.584H69.7101V581.427ZM187.487 581.427H303.324V465.585L187.487 465.584V581.427ZM305.257 581.427H421.099V465.585H305.257V581.427ZM423.032 581.427H538.872V465.585H423.032V581.427ZM540.805 581.427H656.649V465.585H540.805V581.427ZM658.582 581.427H774.423V465.585H658.582V581.427ZM776.356 581.427H892.196V465.585H776.356V581.427ZM894.129 581.427H1009.97V465.585H894.129V581.427ZM1011.91 581.427H1127.75V465.585H1011.91V581.427ZM1127.75 347.811V463.652H1011.91V347.811H1127.75ZM1009.97 347.811V463.652H894.129V347.811H1009.97ZM892.196 347.811V463.652H776.356V347.811H892.196ZM774.423 347.811V463.652H658.582V347.811H774.423ZM656.649 347.811V463.652H540.805V347.811H656.649ZM538.872 347.811V463.652H423.032V347.811H538.872ZM421.099 347.811V463.652H305.257V347.811H421.099ZM303.324 347.811V463.652H187.487V347.811H303.324ZM185.554 347.811V463.652H69.7101V347.811H185.554ZM69.7101 345.878H185.554V230.036H69.7101V345.878ZM187.487 345.878H303.324V230.036H187.487V345.878ZM305.257 345.878H421.099V230.036H305.257V345.878ZM423.032 345.878H538.872V230.036H423.032V345.878ZM540.805 345.878H656.649V230.036H540.805V345.878ZM658.582 345.878H774.423V230.036H658.582V345.878ZM776.356 345.878H892.196V230.036H776.356V345.878ZM894.129 345.878H1009.97V230.036H894.129V345.878ZM1011.91 345.878H1127.75V230.036H1011.91V345.878ZM1127.75 112.261V228.104H1011.91V112.261H1127.75ZM1009.97 112.261V228.104H894.129V112.261H1009.97ZM892.196 112.261V228.104H776.356V112.261H892.196ZM774.423 112.261V228.104H658.582V112.261H774.423ZM656.649 112.261V228.104H540.805V112.261H656.649ZM538.872 112.261V228.104H423.032V112.261H538.872ZM421.099 112.261V228.104H305.257V112.261H421.099ZM303.324 112.261V228.104H187.487V112.261H303.324ZM185.554 112.261V228.104H69.7101V112.261H185.554ZM69.7101 110.329H185.554V-5.51436H69.7101V110.329ZM187.487 110.329H303.324V-5.51434L187.487 -5.51436V110.329ZM305.257 110.329H421.099V-5.51433L305.257 -5.51434V110.329ZM423.032 110.329H538.872V-5.51431L423.032 -5.51433V110.329ZM540.805 110.329H656.649V-5.51431H540.805V110.329ZM658.582 110.329H774.423V-5.5143L658.582 -5.51431V110.329ZM776.356 110.329H892.196V-5.51428L776.356 -5.5143V110.329ZM894.129 110.329H1009.97V-5.51427L894.129 -5.51428V110.329ZM1011.91 110.329H1127.75V-5.51427H1011.91V110.329ZM1127.75 -123.289V-7.44685L1011.91 -7.44687V-123.289H1127.75ZM1009.97 -123.289V-7.44687L894.129 -7.44688V-123.289H1009.97ZM892.196 -123.289V-7.44688H776.356V-123.289H892.196ZM774.423 -123.289V-7.44688L658.582 -7.4469V-123.289H774.423ZM656.649 -123.289V-7.4469L540.805 -7.44691V-123.289H656.649ZM538.872 -123.289V-7.44691H423.032V-123.289H538.872ZM421.099 -123.289V-7.44691L305.257 -7.44693V-123.289H421.099ZM303.324 -123.289V-7.44693L187.487 -7.44695V-123.289H303.324ZM185.554 -123.289V-7.44695H69.7101V-123.289H185.554ZM-49.9999 -210.61L-50 1021.61H-48.0674V-210.61H-49.9999ZM1245.53 -210.609V1021.61H1247.46V-210.609H1245.53ZM1213.13 1052.53H-19.0848V1054.46H1213.13V1052.53Z" fill="url(#paint0_radial_98_16)" fill-opacity="0.05"/>
<path d="M539.965 47V121.433" stroke="url(#paint1_linear_98_16)" stroke-width="0.930416"/>
<path d="M839.735 464.581H713.199" stroke="url(#paint2_linear_98_16)" stroke-width="0.930416"/>
<mask id="mask1_98_16" style="mask-type:luminance" maskUnits="userSpaceOnUse" x="526" y="332" width="29" height="29">
<path d="M555 332H526V361H555V332Z" fill="#D9D9D9"/>
</mask>
<g mask="url(#mask1_98_16)">
<path d="M539.655 347.334H533V346.486H539.655V340H540.526V346.486H547.181V347.334H540.526V353.82H539.655V347.334Z" fill="#A727C6" fill-opacity="0.8"/>
</g>
</g>
</g>
<defs>
<radialGradient id="paint0_radial_98_16" cx="0" cy="0" r="1" gradientUnits="userSpaceOnUse" gradientTransform="translate(555.701 283.616) rotate(71.0092) scale(424.584)">
<stop stop-color="white"/>
<stop offset="1" stop-color="white" stop-opacity="0"/>
</radialGradient>
<linearGradient id="paint1_linear_98_16" x1="-nan" y1="-nan" x2="-nan" y2="-nan" gradientUnits="userSpaceOnUse">
<stop offset="0.416667" stop-color="#D162ED"/>
<stop offset="0.895833" stop-color="#A727C6"/>
<stop offset="1" stop-color="#A727C6"/>
</linearGradient>
<linearGradient id="paint2_linear_98_16" x1="-nan" y1="-nan" x2="-nan" y2="-nan" gradientUnits="userSpaceOnUse">
<stop offset="0.416667" stop-color="#D162ED"/>
<stop offset="0.895833" stop-color="#A727C6"/>
<stop offset="1" stop-color="#A727C6"/>
</linearGradient>
<clipPath id="clip0_98_16">
<rect width="728" height="669" fill="white"/>
</clipPath>
</defs>
</svg>
