<svg width="775" height="669" viewBox="0 0 775 669" fill="none" xmlns="http://www.w3.org/2000/svg">
<g clip-path="url(#clip0_97_2)">
<mask id="mask0_97_2" style="mask-type:luminance" maskUnits="userSpaceOnUse" x="-522" y="-243" width="1297" height="912">
<path d="M775 -243H-522V668.405H775V-243Z" fill="white"/>
</mask>
<g mask="url(#mask0_97_2)">
<path fill-rule="evenodd" clip-rule="evenodd" d="M-491.085 -243H741.134V-241.067L-491.085 -241.068V-243ZM-522 -210.61V1021.61H-520.067V-210.61H-522ZM-404.223 -123.289V-7.44647H-491.085V-5.51389H-404.223V110.329H-491.085V112.262H-404.223V228.104H-491.085V230.037H-404.223V345.878H-491.085V347.81H-404.223V463.652H-491.085V465.585H-404.223V581.427H-491.085V583.36H-404.223V699.195H-491.085V701.128H-404.223V816.968H-491.085V818.901H-404.223V934.748H-491.085V936.681H-404.223V1021.61H-402.29V936.681H-286.446V1021.61H-284.513V936.681H-168.676V1021.61H-166.743V936.681H-50.9006V1021.61H-48.968V936.681H66.8723V1021.61H68.8049V936.681H184.649V1021.61H186.582V936.681H302.423V1021.61H304.356V936.681H420.196V1021.61H422.129V936.681H537.972V1021.61H539.905V936.681H655.75V1021.61H657.682V936.681H741.135V934.748H657.682V818.901H741.135V816.968H657.682V701.128H741.134V699.195H657.682V583.36H741.135V581.427H657.682V465.585H741.135V463.652H657.682V347.81H741.135V345.878H657.682V230.037H741.135V228.104H657.682V112.262H741.135V110.329H657.682V-5.51378H741.135V-7.44637H657.682V-123.289H741.135V-125.222H657.682V-210.608H655.75V-125.222H539.905V-210.609H537.972V-125.222H422.129V-210.609H420.196V-125.222H304.356V-210.61H302.423V-125.222H186.582V-210.61H184.649V-125.222H68.805V-210.609H66.8724V-125.222H-48.9679V-210.608H-50.9005V-125.222H-166.743V-210.61H-168.676V-125.222H-284.513V-210.61H-286.446V-125.222H-402.29V-210.609H-404.223V-125.222H-491.085V-123.289H-404.223ZM-286.446 934.748H-402.29V818.901H-286.446V934.748ZM-168.676 934.748H-284.513V818.901H-168.676V934.748ZM-50.9006 934.748H-166.743V818.901H-50.9005L-50.9006 934.748ZM66.8723 934.748H-48.968V818.901H66.8724L66.8723 934.748ZM184.649 934.748H68.8049L68.805 818.901H184.649V934.748ZM302.423 934.748H186.582V818.901H302.423V934.748ZM420.196 934.748H304.356V818.901H420.196V934.748ZM537.972 934.748H422.129V818.901H537.972V934.748ZM655.75 934.748H539.905V818.901H655.75V934.748ZM655.75 816.968V701.128H539.905V816.968H655.75ZM537.972 816.968V701.128H422.129V816.968H537.972ZM420.196 816.968V701.128H304.356V816.968H420.196ZM302.423 816.968V701.128H186.582V816.968H302.423ZM184.649 816.968V701.128H68.805V816.968H184.649ZM66.8724 816.968V701.128H-48.968V816.968H66.8724ZM-50.9005 816.968V701.128H-166.743V816.968H-50.9005ZM-168.676 816.968V701.128H-284.513V816.968H-168.676ZM-286.446 816.968V701.128H-402.29V816.968H-286.446ZM-286.446 699.195H-402.29V583.36H-286.446V699.195ZM-168.676 699.195H-284.513V583.36H-168.676V699.195ZM-50.9005 699.195H-166.743V583.36H-50.9005V699.195ZM66.8724 699.195H-48.968L-48.9679 583.36H66.8724V699.195ZM184.649 699.195H68.805V583.36H184.649V699.195ZM302.423 699.195H186.582V583.36H302.423V699.195ZM420.196 699.195H304.356V583.36H420.196V699.195ZM537.972 699.195H422.129V583.36H537.972V699.195ZM655.75 699.195H539.905V583.36H655.75V699.195ZM655.75 581.427V465.585H539.905V581.427H655.75ZM537.972 581.427V465.585H422.129V581.427H537.972ZM420.196 581.427V465.585H304.356V581.427H420.196ZM302.423 581.427V465.585H186.582V581.427H302.423ZM184.649 581.427V465.585H68.805V581.427H184.649ZM66.8724 581.427V465.585H-48.9679V581.427H66.8724ZM-50.9005 581.427V465.585H-166.743V581.427H-50.9005ZM-168.676 581.427V465.585H-284.513V581.427H-168.676ZM-286.446 581.427V465.585H-402.29V581.427H-286.446ZM-286.446 463.652H-402.29V347.81H-286.446V463.652ZM-168.676 463.652H-284.513V347.81H-168.676V463.652ZM-50.9005 463.652H-166.743V347.81H-50.9005V463.652ZM66.8724 463.652H-48.9679V347.81H66.8724V463.652ZM184.649 463.652H68.805V347.81H184.649V463.652ZM302.423 463.652H186.582V347.81H302.423V463.652ZM420.196 463.652H304.356V347.81H420.196V463.652ZM537.972 463.652H422.129V347.81H537.972V463.652ZM655.75 463.652H539.905V347.81H655.75V463.652ZM655.75 345.878V230.037H539.905V345.878H655.75ZM537.972 345.878V230.037H422.129V345.878H537.972ZM420.196 345.878V230.037H304.356V345.878H420.196ZM302.423 345.878V230.037H186.582V345.878H302.423ZM184.649 345.878V230.037H68.805V345.878H184.649ZM66.8724 345.878V230.037H-48.9679V345.878H66.8724ZM-50.9005 345.878V230.037H-166.743V345.878H-50.9005ZM-168.676 345.878V230.037H-284.513V345.878H-168.676ZM-286.446 345.878V230.037H-402.29V345.878H-286.446ZM-286.446 228.104H-402.29V112.262H-286.446V228.104ZM-168.676 228.104H-284.513V112.262H-168.676V228.104ZM-50.9005 228.104H-166.743V112.262H-50.9005V228.104ZM66.8724 228.104H-48.9679V112.262H66.8724V228.104ZM184.649 228.104H68.805V112.262H184.649V228.104ZM302.423 228.104H186.582V112.262H302.423V228.104ZM420.196 228.104H304.356V112.262H420.196V228.104ZM537.972 228.104H422.129V112.262H537.972V228.104ZM655.75 228.104H539.905V112.262H655.75V228.104ZM655.75 110.329V-5.51378L539.905 -5.51379V110.329H655.75ZM537.972 110.329V-5.51379L422.129 -5.51381V110.329H537.972ZM420.196 110.329V-5.51381H304.356V110.329H420.196ZM302.423 110.329V-5.51381L186.582 -5.51382V110.329H302.423ZM184.649 110.329V-5.51382L68.805 -5.51384V110.329H184.649ZM66.8724 110.329V-5.51384H-48.9679V110.329H66.8724ZM-50.9005 110.329V-5.51384L-166.743 -5.51385V110.329H-50.9005ZM-168.676 110.329V-5.51385L-284.513 -5.51387V110.329H-168.676ZM-286.446 110.329V-5.51387H-402.29V110.329H-286.446ZM-286.446 -7.44646H-402.29V-123.289H-286.446V-7.44646ZM-168.676 -7.44644L-284.513 -7.44646V-123.289H-168.676V-7.44644ZM-50.9005 -7.44643L-166.743 -7.44644V-123.289H-50.9005V-7.44643ZM66.8724 -7.44643H-48.9679V-123.289H66.8724V-7.44643ZM184.649 -7.44641L68.805 -7.44643V-123.289H184.649V-7.44641ZM302.423 -7.4464L186.582 -7.44641V-123.289H302.423V-7.4464ZM420.196 -7.4464H304.356V-123.289H420.196V-7.4464ZM537.972 -7.44638L422.129 -7.4464V-123.289H537.972V-7.44638ZM655.75 -7.44637L539.905 -7.44638V-123.289H655.75V-7.44637ZM773.526 -210.608V1021.61H775.459V-210.608H773.526ZM741.135 1052.52H-491.085V1054.46H741.135V1052.52Z" fill="url(#paint0_radial_97_2)" fill-opacity="0.05"/>
<path d="M303.745 78.9238V135.679" stroke="url(#paint1_linear_97_2)" stroke-width="0.930416"/>
<path d="M317.235 464.58H190.699" stroke="url(#paint2_linear_97_2)" stroke-width="0.930416"/>
<mask id="mask1_97_2" style="mask-type:luminance" maskUnits="userSpaceOnUse" x="172" y="214" width="29" height="29">
<path d="M201 214H172V243H201V214Z" fill="#D9D9D9"/>
</mask>
<g mask="url(#mask1_97_2)">
<path d="M185.655 229.334H179V228.486H185.655V222H186.526V228.486H193.181V229.334H186.526V235.82H185.655V229.334Z" fill="#A727C6" fill-opacity="0.8"/>
</g>
</g>
</g>
<defs>
<radialGradient id="paint0_radial_97_2" cx="0" cy="0" r="1" gradientUnits="userSpaceOnUse" gradientTransform="translate(83.7008 283.615) rotate(71.0092) scale(424.584 424.584)">
<stop stop-color="white"/>
<stop offset="1" stop-color="white" stop-opacity="0"/>
</radialGradient>
<linearGradient id="paint1_linear_97_2" x1="-nan" y1="-nan" x2="-nan" y2="-nan" gradientUnits="userSpaceOnUse">
<stop offset="0.416667" stop-color="#D162ED"/>
<stop offset="0.895833" stop-color="#A727C6"/>
<stop offset="1" stop-color="#A727C6"/>
</linearGradient>
<linearGradient id="paint2_linear_97_2" x1="-nan" y1="-nan" x2="-nan" y2="-nan" gradientUnits="userSpaceOnUse">
<stop offset="0.416667" stop-color="#D162ED"/>
<stop offset="0.895833" stop-color="#A727C6"/>
<stop offset="1" stop-color="#A727C6"/>
</linearGradient>
<clipPath id="clip0_97_2">
<rect width="775" height="669" fill="white"/>
</clipPath>
</defs>
</svg>
