<svg width="159" height="45" viewBox="0 0 159 45" fill="none" xmlns="http://www.w3.org/2000/svg">
<path d="M8.176 34.196C6.888 34.196 5.74933 33.972 4.76 33.524C3.78933 33.076 3.024 32.4507 2.464 31.648C1.904 30.8453 1.60533 29.9493 1.568 28.96H3.64C3.73333 29.912 4.15333 30.752 4.9 31.48C5.64667 32.1893 6.73867 32.544 8.176 32.544C9.50133 32.544 10.5467 32.208 11.312 31.536C12.096 30.8453 12.488 29.9773 12.488 28.932C12.488 28.092 12.2733 27.42 11.844 26.916C11.4147 26.3933 10.8827 26.0107 10.248 25.768C9.61333 25.5067 8.736 25.2267 7.616 24.928C6.30933 24.5733 5.27333 24.228 4.508 23.892C3.74267 23.556 3.08933 23.0333 2.548 22.324C2.00667 21.6147 1.736 20.6533 1.736 19.44C1.736 18.432 1.99733 17.536 2.52 16.752C3.04267 15.9493 3.78 15.324 4.732 14.876C5.684 14.428 6.776 14.204 8.008 14.204C9.81867 14.204 11.2747 14.652 12.376 15.548C13.496 16.4253 14.14 17.564 14.308 18.964H12.18C12.0493 18.1613 11.6107 17.452 10.864 16.836C10.1173 16.2013 9.10933 15.884 7.84 15.884C6.664 15.884 5.684 16.2013 4.9 16.836C4.116 17.452 3.724 18.3013 3.724 19.384C3.724 20.2053 3.93867 20.868 4.368 21.372C4.79733 21.876 5.32933 22.2587 5.964 22.52C6.61733 22.7813 7.49467 23.0613 8.596 23.36C9.86533 23.7147 10.892 24.0693 11.676 24.424C12.46 24.76 13.1227 25.2827 13.664 25.992C14.2053 26.7013 14.476 27.6533 14.476 28.848C14.476 29.7627 14.2333 30.6307 13.748 31.452C13.2627 32.2733 12.544 32.936 11.592 33.44C10.64 33.944 9.50133 34.196 8.176 34.196ZM25.5434 18.432C26.7008 18.432 27.7368 18.6747 28.6514 19.16C29.5848 19.6453 30.3128 20.392 30.8354 21.4C31.3768 22.3893 31.6474 23.6027 31.6474 25.04V34H29.7154V25.264C29.7154 23.6027 29.2954 22.3333 28.4554 21.456C27.6341 20.5787 26.5048 20.14 25.0674 20.14C23.5928 20.14 22.4168 20.6067 21.5394 21.54C20.6621 22.4733 20.2234 23.8453 20.2234 25.656V34H18.2634V13.28H20.2234V21.316C20.7088 20.4013 21.4181 19.692 22.3514 19.188C23.3034 18.684 24.3674 18.432 25.5434 18.432ZM36.9622 15.828C36.5702 15.828 36.2342 15.688 35.9542 15.408C35.6742 15.128 35.5342 14.7827 35.5342 14.372C35.5342 13.9613 35.6742 13.6253 35.9542 13.364C36.2342 13.084 36.5702 12.944 36.9622 12.944C37.3542 12.944 37.6902 13.084 37.9702 13.364C38.2502 13.6253 38.3902 13.9613 38.3902 14.372C38.3902 14.7827 38.2502 15.128 37.9702 15.408C37.6902 15.688 37.3542 15.828 36.9622 15.828ZM37.9422 18.712V34H35.9822V18.712H37.9422ZM41.4846 26.328C41.4846 24.76 41.7926 23.388 42.4086 22.212C43.0433 21.0173 43.9113 20.1027 45.0126 19.468C46.1326 18.8147 47.3926 18.488 48.7926 18.488C50.2486 18.488 51.4993 18.824 52.5446 19.496C53.6086 20.168 54.374 21.0267 54.8406 22.072V18.712H56.8006V34H54.8406V30.612C54.3553 31.6573 53.5806 32.5253 52.5166 33.216C51.4713 33.888 50.2206 34.224 48.7646 34.224C47.3833 34.224 46.1326 33.8973 45.0126 33.244C43.9113 32.5907 43.0433 31.6667 42.4086 30.472C41.7926 29.2773 41.4846 27.896 41.4846 26.328ZM54.8406 26.356C54.8406 25.124 54.5886 24.0413 54.0846 23.108C53.5806 22.1747 52.89 21.456 52.0126 20.952C51.154 20.448 50.202 20.196 49.1566 20.196C48.074 20.196 47.1033 20.4387 46.2446 20.924C45.386 21.4093 44.7046 22.1187 44.2006 23.052C43.7153 23.9667 43.4726 25.0587 43.4726 26.328C43.4726 27.5787 43.7153 28.68 44.2006 29.632C44.7046 30.5653 45.386 31.284 46.2446 31.788C47.1033 32.2733 48.074 32.516 49.1566 32.516C50.202 32.516 51.154 32.264 52.0126 31.76C52.89 31.256 53.5806 30.5373 54.0846 29.604C54.5886 28.6707 54.8406 27.588 54.8406 26.356ZM66.7072 32.096L71.8592 18.712H73.9312L67.7992 34H65.5872L59.4552 18.712H61.5552L66.7072 32.096ZM83.7557 18.432C85.585 18.432 87.0783 19.0013 88.2357 20.14C89.393 21.26 89.9717 22.8933 89.9717 25.04V34H88.0397V25.264C88.0397 23.6027 87.6197 22.3333 86.7797 21.456C85.9583 20.5787 84.829 20.14 83.3917 20.14C81.917 20.14 80.741 20.6067 79.8637 21.54C78.9863 22.4733 78.5477 23.8453 78.5477 25.656V34H76.5877V18.712H78.5477V21.316C79.033 20.3827 79.733 19.6733 80.6477 19.188C81.5623 18.684 82.5983 18.432 83.7557 18.432ZM99.5704 34.224C97.8157 34.224 96.3784 33.8227 95.2584 33.02C94.1571 32.1987 93.5411 31.088 93.4104 29.688H95.4264C95.5197 30.5467 95.9211 31.2467 96.6304 31.788C97.3584 32.3107 98.3291 32.572 99.5424 32.572C100.606 32.572 101.437 32.32 102.034 31.816C102.65 31.312 102.958 30.6867 102.958 29.94C102.958 29.4173 102.79 28.988 102.454 28.652C102.118 28.316 101.689 28.0547 101.166 27.868C100.662 27.6627 99.9717 27.448 99.0944 27.224C97.9557 26.9253 97.0317 26.6267 96.3224 26.328C95.6131 26.0293 95.0064 25.5907 94.5024 25.012C94.0171 24.4147 93.7744 23.6213 93.7744 22.632C93.7744 21.8853 93.9984 21.1947 94.4464 20.56C94.8944 19.9253 95.5291 19.4213 96.3504 19.048C97.1717 18.6747 98.1051 18.488 99.1504 18.488C100.793 18.488 102.118 18.908 103.126 19.748C104.134 20.5693 104.676 21.708 104.75 23.164H102.79C102.734 22.268 102.38 21.5493 101.726 21.008C101.092 20.448 100.214 20.168 99.0944 20.168C98.1051 20.168 97.3024 20.4013 96.6864 20.868C96.0704 21.3347 95.7624 21.9133 95.7624 22.604C95.7624 23.2013 95.9397 23.696 96.2944 24.088C96.6677 24.4613 97.1251 24.76 97.6664 24.984C98.2077 25.1893 98.9357 25.4227 99.8504 25.684C100.952 25.9827 101.829 26.272 102.482 26.552C103.136 26.832 103.696 27.2427 104.162 27.784C104.629 28.3253 104.872 29.044 104.89 29.94C104.89 30.7613 104.666 31.4987 104.218 32.152C103.77 32.7867 103.145 33.2907 102.342 33.664C101.54 34.0373 100.616 34.224 99.5704 34.224ZM116.84 34L110.54 27.14V34H108.58V13.28H110.54V25.544L116.7 18.712H119.444L112.192 26.328L119.5 34H116.84ZM123.013 15.828C122.621 15.828 122.285 15.688 122.005 15.408C121.725 15.128 121.585 14.7827 121.585 14.372C121.585 13.9613 121.725 13.6253 122.005 13.364C122.285 13.084 122.621 12.944 123.013 12.944C123.405 12.944 123.741 13.084 124.021 13.364C124.301 13.6253 124.441 13.9613 124.441 14.372C124.441 14.7827 124.301 15.128 124.021 15.408C123.741 15.688 123.405 15.828 123.013 15.828ZM123.993 18.712V34H122.033V18.712H123.993ZM128.767 34.14C128.357 34.14 128.011 34 127.731 33.72C127.47 33.44 127.339 33.0947 127.339 32.684C127.339 32.2733 127.47 31.9373 127.731 31.676C128.011 31.396 128.357 31.256 128.767 31.256C129.159 31.256 129.486 31.396 129.747 31.676C130.027 31.9373 130.167 32.2733 130.167 32.684C130.167 33.0947 130.027 33.44 129.747 33.72C129.486 34 129.159 34.14 128.767 34.14Z" fill="#161616"/>
<path d="M134.402 7.49V20H132.35V7.49H134.402ZM142.1 9.92C142.88 9.92 143.576 10.082 144.188 10.406C144.812 10.73 145.298 11.21 145.646 11.846C145.994 12.482 146.168 13.25 146.168 14.15V20H144.134V14.456C144.134 13.568 143.912 12.89 143.468 12.422C143.024 11.942 142.418 11.702 141.65 11.702C140.882 11.702 140.27 11.942 139.814 12.422C139.37 12.89 139.148 13.568 139.148 14.456V20H137.096V10.082H139.148V11.216C139.484 10.808 139.91 10.49 140.426 10.262C140.954 10.034 141.512 9.92 142.1 9.92ZM148.102 15.032C148.102 14.012 148.306 13.118 148.714 12.35C149.134 11.57 149.71 10.97 150.442 10.55C151.174 10.13 152.014 9.92 152.962 9.92C154.162 9.92 155.152 10.208 155.932 10.784C156.724 11.348 157.258 12.158 157.534 13.214H155.32C155.14 12.722 154.852 12.338 154.456 12.062C154.06 11.786 153.562 11.648 152.962 11.648C152.122 11.648 151.45 11.948 150.946 12.548C150.454 13.136 150.208 13.964 150.208 15.032C150.208 16.1 150.454 16.934 150.946 17.534C151.45 18.134 152.122 18.434 152.962 18.434C154.15 18.434 154.936 17.912 155.32 16.868H157.534C157.246 17.876 156.706 18.68 155.914 19.28C155.122 19.868 154.138 20.162 152.962 20.162C152.014 20.162 151.174 19.952 150.442 19.532C149.71 19.1 149.134 18.5 148.714 17.732C148.306 16.952 148.102 16.052 148.102 15.032Z" fill="#D162ED"/>
</svg>
