<svg width="433" height="97" viewBox="0 0 433 97" fill="none" xmlns="http://www.w3.org/2000/svg">
<path fill-rule="evenodd" clip-rule="evenodd" d="M185.2 46.88C187.816 45.8676 190.061 44.0801 191.634 41.7568C193.207 39.4336 194.032 36.6853 194 33.88C194 22.18 185.7 16.38 174.3 16.38H144.4V80H176.9C186.9 80 196.7 73 196.7 62.3C196.7 49.58 185.2 47 185.2 46.88ZM160 29.58H171.6C172.343 29.534 173.087 29.6349 173.791 29.8769C174.495 30.119 175.144 30.4974 175.701 30.9907C176.258 31.4839 176.713 32.0821 177.039 32.7512C177.365 33.4203 177.555 34.1471 177.6 34.89C177.6 35.1167 177.6 35.3467 177.6 35.58C177.568 37.144 176.92 38.6323 175.796 39.7205C174.672 40.8087 173.164 41.4088 171.6 41.39H159.9L160 29.58ZM171.7 66.68H160.1V54.18H171.4C177.1 54.18 179.8 56.68 179.8 60.38C179.8 65 176.4 66.68 171.7 66.68Z" fill="#ED0007"/>
<path fill-rule="evenodd" clip-rule="evenodd" d="M231.1 14.78C212.7 14.78 201.9 29.48 201.9 48.08C201.9 66.68 212.7 81.38 231.1 81.38C249.5 81.38 260.3 66.78 260.3 48.08C260.3 29.38 249.6 14.78 231.1 14.78ZM231.1 66.18C222.1 66.18 217.6 58.08 217.6 48.08C217.6 38.08 222.1 30.08 231.1 30.08C240.1 30.08 244.7 38.18 244.7 48.08C244.7 58.18 240.1 66.18 231.1 66.18Z" fill="#ED0007"/>
<path fill-rule="evenodd" clip-rule="evenodd" d="M294.2 41.38L292 40.88C286.6 39.78 282.3 38.38 282.3 34.48C282.3 30.28 286.4 28.58 290 28.58C292.456 28.6166 294.878 29.1594 297.115 30.1746C299.352 31.1898 301.355 32.6554 303 34.48L312.9 24.68C308.4 19.58 301.1 14.68 289.7 14.68C276.3 14.68 266.1 22.18 266.1 34.68C266.1 46.08 274.3 51.68 284.3 53.78L286.5 54.28C294.8 55.98 297.9 57.28 297.9 61.28C297.9 65.08 294.5 67.58 289.3 67.58C283.1 67.58 277.5 64.88 273.2 59.38L263.1 69.38C268.7 76.08 275.8 81.28 289.5 81.28C301.4 81.28 314.1 74.48 314.1 60.58C314.3 46.08 303.3 43.28 294.2 41.38Z" fill="#ED0007"/>
<path fill-rule="evenodd" clip-rule="evenodd" d="M349.7 66.18C342.7 66.18 335.4 60.38 335.4 47.68C335.4 36.38 342.2 30.08 349.3 30.08C354.9 30.08 358.2 32.68 360.8 37.18L373.6 28.68C367.2 18.98 359.6 14.88 349.1 14.88C329.9 14.88 319.5 29.78 319.5 47.78C319.5 66.68 331 81.48 348.9 81.48C361.5 81.48 367.5 77.08 374 67.68L361.1 59C358.5 63.18 355.7 66.18 349.7 66.18Z" fill="#ED0007"/>
<path fill-rule="evenodd" clip-rule="evenodd" d="M416.3 16.38V39.78H397V16.38H380.3V79.98H397V54.88H416.3V79.98H433V16.38H416.3Z" fill="#ED0007"/>
<path d="M48.2 0.179993C38.667 0.179993 29.348 3.00687 21.4215 8.30316C13.4951 13.5994 7.31717 21.1273 3.66903 29.9347C0.0208843 38.742 -0.933636 48.4335 0.926171 57.7833C2.78598 67.1332 7.37658 75.7216 14.1175 82.4625C20.8584 89.2034 29.4468 93.794 38.7967 95.6538C48.1466 97.5136 57.838 96.5591 66.6454 92.911C75.4528 89.2628 82.9806 83.0849 88.2769 75.1585C93.5731 67.232 96.4 57.9131 96.4 48.38C96.4 35.5966 91.3218 23.3367 82.2826 14.2974C73.2433 5.25819 60.9835 0.179993 48.2 0.179993ZM48.2 92.08C39.557 92.08 31.108 89.517 23.9216 84.7152C16.7352 79.9134 11.134 73.0884 7.82649 65.1033C4.51894 57.1181 3.65353 48.3315 5.3397 39.8545C7.02588 31.3776 11.1879 23.591 17.2995 17.4794C23.411 11.3679 31.1976 7.20585 39.6746 5.51968C48.1515 3.8335 56.9382 4.69891 64.9233 8.00646C72.9084 11.314 79.7334 16.9151 84.5352 24.1016C89.3371 31.288 91.9 39.7369 91.9 48.38C91.8974 59.9691 87.2924 71.0829 79.0977 79.2776C70.9029 87.4724 59.7892 92.0773 48.2 92.08Z" fill="white"/>
<path d="M68.1001 18.28H64.8001V34.78H31.7001V18.28H28.3001C23.3202 21.5653 19.2332 26.0348 16.4054 31.288C13.5776 36.5413 12.0974 42.414 12.0974 48.38C12.0974 54.3459 13.5776 60.2187 16.4054 65.4719C19.2332 70.7251 23.3202 75.1947 28.3001 78.48H31.7001V62H64.8001V78.5H68.1001C73.0821 75.2163 77.1712 70.7473 80.0005 65.4938C82.8298 60.2404 84.3109 54.3668 84.3109 48.4C84.3109 42.4331 82.8298 36.5595 80.0005 31.3061C77.1712 26.0527 73.0821 21.5837 68.1001 18.3V18.28ZM27.1001 72C23.9987 69.2443 21.4705 65.9047 19.6599 62.1719C17.8492 58.4392 16.7916 54.3863 16.5474 50.2447C16.3032 46.1031 16.8771 41.954 18.2365 38.0343C19.5959 34.1146 21.7141 30.501 24.4701 27.4C25.2961 26.4773 26.1742 25.6025 27.1001 24.78V72ZM64.8001 57.4H31.7001V39.28H64.8001V57.4ZM69.3001 71.9V61.9V34.78V24.78C72.3939 27.558 74.9099 30.9184 76.7045 34.6692C78.4991 38.42 79.537 42.4877 79.7589 46.6398C79.9809 50.7918 79.3825 54.947 77.998 58.8677C76.6135 62.7884 74.4701 66.3979 71.6901 69.49C70.9339 70.3261 70.1362 71.1238 69.3001 71.88V71.9Z" fill="white"/>
</svg>
