<?xml version="1.0" encoding="utf-8"?>
<!-- Generator: Adobe Illustrator 25.2.0, SVG Export Plug-In . SVG Version: 6.00 Build 0)  -->
<svg version="1.1" id="Layer_1" xmlns="http://www.w3.org/2000/svg" xmlns:xlink="http://www.w3.org/1999/xlink" x="0px" y="0px"
	 viewBox="0 0 142.6 24.5" style="enable-background:new 0 0 142.6 24.5;" xml:space="preserve">
<style type="text/css">
	.st0{fill:#FFFFFF;}
</style>
<g>
	<g>
		<path class="st0" d="M47.8,12.3h-4.4c-0.2,0-0.4,0.2-0.4,0.4v1.5c0,0.2,0.2,0.3,0.4,0.4h2c0.2,0,0.4,0.2,0.4,0.4c0,0,0,0,0,0v0.7
			c0,0.1-0.1,0.2-0.1,0.3c-0.4,0.3-0.8,0.6-1.3,0.7c-0.5,0.2-1.1,0.3-1.7,0.3c-1.2,0-2.3-0.4-3.2-1.3c-0.4-0.4-0.7-0.9-1-1.4
			c-0.2-0.5-0.4-1.1-0.4-1.7c0-0.6,0.1-1.2,0.4-1.7c0.2-0.5,0.6-1,1-1.4c0.4-0.4,0.9-0.8,1.4-1c0.6-0.2,1.2-0.3,1.8-0.3
			c0.7,0,1.4,0.1,2.1,0.4c0.5,0.3,1,0.6,1.4,1.1c0.1,0.2,0.4,0.2,0.5,0c0,0,0,0,0,0l1.2-1.2c0.1-0.1,0.1-0.4,0-0.5
			c-0.6-0.6-1.3-1.2-2.1-1.6c-1-0.5-2-0.7-3.1-0.7c-0.9,0-1.9,0.2-2.7,0.5c-0.8,0.3-1.6,0.8-2.2,1.5C37,8.3,36.5,9,36.2,9.8
			c-0.7,1.7-0.7,3.6,0,5.4c0.4,0.8,0.9,1.6,1.5,2.2c1.3,1.3,3.1,2,5,2c0.5,0,1-0.1,1.5-0.2c0.5-0.1,1-0.3,1.5-0.5
			c0.5-0.2,0.9-0.5,1.4-0.8c0.4-0.3,0.8-0.7,1.1-1.1c0.1-0.1,0.1-0.2,0.1-0.3v-3.8C48.2,12.5,48.1,12.3,47.8,12.3
			C47.8,12.3,47.8,12.3,47.8,12.3"/>
		<path class="st0" d="M55.5,9.7c-0.4-0.2-0.8-0.3-1.3-0.3c-0.4,0-0.8,0.1-1.2,0.3c-0.4,0.2-0.7,0.6-0.9,0.9V10
			c0-0.2-0.2-0.4-0.4-0.4h-1.6c-0.2,0-0.4,0.2-0.4,0.4v8.7c0,0.2,0.2,0.4,0.4,0.4c0,0,0,0,0,0h1.6c0.2,0,0.4-0.2,0.4-0.4l0,0v-5
			c0-0.3,0-0.7,0.2-1c0.1-0.2,0.2-0.5,0.4-0.6c0.1-0.2,0.3-0.3,0.5-0.4c0.4-0.2,1-0.1,1.3,0.2c0.2,0.1,0.3,0.2,0.4,0.4
			c0.2,0.1,0.4,0.1,0.5,0c0,0,0,0,0,0l0.8-1.4c0.1-0.1,0.1-0.3,0-0.5C56.2,10.1,55.9,9.9,55.5,9.7"/>
		<path class="st0" d="M65.8,10.8c-1-0.9-2.2-1.4-3.6-1.4c-0.7,0-1.3,0.1-2,0.4c-0.6,0.3-1.1,0.6-1.6,1.1c-0.5,0.5-0.8,1-1.1,1.6
			c-0.5,1.2-0.5,2.6,0,3.9c0.3,0.6,0.6,1.1,1.1,1.6c0.5,0.5,1,0.8,1.6,1.1c0.6,0.3,1.3,0.4,2,0.4c0.7,0,1.4-0.1,2-0.3
			c0.6-0.2,1.1-0.5,1.5-0.8c0.2-0.1,0.2-0.4,0-0.5c0,0,0,0,0,0l-1-0.9c-0.1-0.1-0.3-0.1-0.5,0c-0.3,0.2-0.5,0.3-0.8,0.4
			c-0.4,0.1-0.8,0.2-1.3,0.2c-0.3,0-0.7,0-1-0.2c-0.3-0.1-0.5-0.2-0.8-0.4c-0.2-0.2-0.4-0.4-0.6-0.6l-0.1-0.2
			c-0.1-0.2,0-0.4,0.2-0.5c0,0,0.1,0,0.2,0h6.7c0.2,0,0.4-0.1,0.4-0.3c0-0.1,0-0.1,0-0.2c0-0.2,0-0.3,0-0.5
			C67.3,13,66.8,11.7,65.8,10.8 M64.3,13.5h-4c-0.2,0-0.4-0.1-0.4-0.4c0-0.1,0-0.1,0.1-0.2c0.2-0.4,0.4-0.7,0.7-0.9
			c0.5-0.4,1.1-0.6,1.7-0.5c0.6,0,1.1,0.2,1.6,0.6c0.3,0.2,0.6,0.5,0.8,0.9c0.1,0.2,0,0.4-0.2,0.5C64.4,13.5,64.4,13.5,64.3,13.5"/>
		<path class="st0" d="M77.1,10.8c-1-0.9-2.2-1.4-3.6-1.4c-0.7,0-1.3,0.1-2,0.4C71,10,70.4,10.4,70,10.8c-0.5,0.5-0.8,1-1.1,1.6
			c-0.5,1.2-0.5,2.6,0,3.9c0.3,0.6,0.6,1.1,1.1,1.6c0.5,0.5,1,0.8,1.6,1.1c0.6,0.3,1.3,0.4,2,0.4c0.7,0,1.3-0.1,2-0.3
			c0.6-0.2,1.1-0.5,1.5-0.8c0.2-0.1,0.2-0.4,0-0.5c0,0,0,0,0,0l-1-0.9c-0.1-0.1-0.3-0.1-0.5,0c-0.3,0.2-0.5,0.3-0.8,0.4
			c-0.4,0.1-0.8,0.2-1.3,0.2c-0.3,0-0.7,0-1-0.2c-0.3-0.1-0.6-0.2-0.8-0.4c-0.2-0.2-0.4-0.4-0.6-0.6l-0.1-0.2
			c-0.1-0.2,0-0.4,0.1-0.5c0.1,0,0.1-0.1,0.2-0.1h7c0-0.2,0-0.3,0-0.5c0-0.2,0-0.3,0-0.5c0-1.4-0.5-2.7-1.5-3.6 M75.5,13.4h-4
			c-0.2,0-0.4-0.2-0.4-0.4c0-0.1,0-0.1,0.1-0.2c0.2-0.3,0.4-0.6,0.7-0.9c0.4-0.3,0.8-0.5,1.3-0.6c0.7-0.1,1.4,0.1,2,0.6
			c0.3,0.2,0.5,0.5,0.7,0.9c0.1,0.2,0.1,0.4-0.1,0.5C75.7,13.4,75.6,13.4,75.5,13.4"/>
		<path class="st0" d="M87.6,10.3c-0.3-0.3-0.7-0.6-1.2-0.7C86,9.4,85.5,9.4,85,9.4c-0.2,0-0.5,0-0.7,0.1c-0.2,0-0.5,0.1-0.7,0.2
			c-0.2,0.1-0.4,0.2-0.6,0.3c-0.1,0.1-0.2,0.2-0.4,0.2l-0.2,0.2V10c0-0.2-0.2-0.4-0.4-0.4c0,0,0,0,0,0h-1.6c-0.2,0-0.4,0.2-0.4,0.4
			l0,0v8.7c0,0.2,0.2,0.4,0.4,0.4c0,0,0,0,0,0h1.6c0.2,0,0.4-0.2,0.4-0.4c0,0,0,0,0,0v-6.3c0-0.1,0-0.2,0.1-0.3
			c0.2-0.2,0.5-0.4,0.8-0.5c0.3-0.1,0.7-0.2,1.1-0.2c0.2,0,0.5,0,0.7,0.1c0.2,0.1,0.4,0.2,0.6,0.4c0.2,0.2,0.3,0.4,0.4,0.6
			c0.1,0.3,0.2,0.6,0.2,0.9v5.3c0,0.2,0.2,0.4,0.4,0.4c0,0,0,0,0,0h1.6c0.2,0,0.4-0.2,0.4-0.4c0,0,0,0,0,0v-5.4
			c0-0.6-0.1-1.2-0.3-1.8C88.3,11,88,10.6,87.6,10.3"/>
		<path class="st0" d="M98.8,13.2c-0.3-0.4-0.7-0.7-1.2-0.9c-0.5-0.3-1.1-0.6-1.7-0.8c-0.5-0.2-1-0.4-1.3-0.5
			c-0.3-0.1-0.6-0.3-0.8-0.5c-0.2-0.1-0.3-0.3-0.5-0.5c-0.1-0.2-0.1-0.4-0.1-0.6c0-0.2,0.1-0.4,0.1-0.5c0.1-0.2,0.2-0.3,0.4-0.4
			c0.2-0.1,0.4-0.2,0.6-0.3C94.6,8.1,94.8,8,95,8c0.8,0,1.6,0.2,2.3,0.8c0.1,0.1,0.4,0.1,0.5,0l1.3-1.3c0.2-0.1,0.2-0.4,0-0.5
			c0,0,0,0,0,0c-0.5-0.4-1-0.7-1.5-0.9c-0.8-0.3-1.7-0.4-2.5-0.4c-0.6,0-1.1,0.1-1.7,0.3c-0.5,0.2-1,0.4-1.4,0.8
			c-0.4,0.3-0.7,0.8-0.9,1.3c-0.2,0.5-0.3,1-0.3,1.5c0,0.5,0.1,1,0.3,1.5c0.2,0.4,0.5,0.8,0.8,1.1c0.4,0.3,0.7,0.6,1.2,0.8
			c0.5,0.2,0.9,0.4,1.4,0.6c0.5,0.2,1,0.4,1.3,0.5c0.3,0.1,0.6,0.3,0.8,0.5c0.2,0.1,0.3,0.3,0.4,0.5c0.1,0.2,0.1,0.4,0.1,0.6
			c0,0.2,0,0.4-0.1,0.5c-0.1,0.2-0.2,0.3-0.4,0.4c-0.2,0.1-0.4,0.2-0.6,0.3C95.8,17,95.6,17,95.3,17c-0.6,0-1.1-0.1-1.7-0.3
			c-0.5-0.2-0.9-0.4-1.3-0.7c-0.1-0.1-0.4-0.1-0.5,0l-1.3,1.3c-0.2,0.1-0.2,0.4,0,0.5c0,0,0,0,0,0c0.3,0.2,0.5,0.4,0.8,0.5
			c0.4,0.2,0.8,0.4,1.2,0.5c0.4,0.1,0.8,0.3,1.3,0.3c0.5,0.1,1,0.1,1.5,0.1c0.6,0,1.2-0.1,1.7-0.3c0.5-0.2,1-0.5,1.4-0.8
			c0.4-0.3,0.7-0.7,0.9-1.2c0.2-0.4,0.3-0.9,0.3-1.4c0-0.5-0.1-0.9-0.2-1.4C99.3,13.9,99.1,13.5,98.8,13.2"/>
		<path class="st0" d="M106,17.1l-0.2,0.1c-0.2,0.1-0.4,0.1-0.7,0.1c-0.1,0-0.3,0-0.4,0c-0.1,0-0.2-0.1-0.3-0.2
			c-0.1-0.1-0.2-0.2-0.2-0.4c-0.1-0.2-0.1-0.4-0.1-0.6v-4.4h1.9c0.2,0,0.4-0.2,0.4-0.4c0,0,0,0,0,0V10c0-0.2-0.2-0.4-0.4-0.4
			c0,0,0,0,0,0h-2V7.1c0-0.2-0.2-0.4-0.4-0.4h0h-0.1c-0.2,0-0.3,0.1-0.4,0.3c-0.1,0.8-0.5,1.5-0.9,2.1c-0.4,0.5-1,1-1.7,1.3
			c-0.1,0.1-0.2,0.2-0.2,0.3v0.5c0,0.2,0.2,0.4,0.4,0.4l0,0h0.9v4.2c0,0.5,0,1,0.2,1.5c0.1,0.4,0.3,0.8,0.5,1.1
			c0.2,0.3,0.6,0.5,0.9,0.6c0.5,0.1,0.9,0.2,1.4,0.2c0.3,0,0.6,0,1-0.1c0.2-0.1,0.4-0.1,0.6-0.2c0.1-0.1,0.2-0.2,0.2-0.3v-1.3
			c0-0.2-0.1-0.4-0.3-0.4c0,0-0.1,0-0.1,0"/>
		<path class="st0" d="M116.2,10.8c-0.5-0.5-1-0.8-1.6-1.1c-0.6-0.3-1.3-0.4-2-0.4c-0.7,0-1.3,0.1-2,0.4c-0.6,0.3-1.1,0.6-1.6,1.1
			c-0.5,0.5-0.8,1-1.1,1.6c-0.3,0.6-0.4,1.3-0.4,2c0,0.7,0.1,1.3,0.4,2c0.3,0.6,0.6,1.1,1.1,1.6c0.5,0.5,1,0.8,1.6,1.1
			c0.6,0.3,1.3,0.4,2,0.4c0.7,0,1.4-0.1,2-0.4c0.6-0.2,1.1-0.6,1.6-1c0.5-0.4,0.8-1,1.1-1.6c0.3-0.6,0.4-1.3,0.4-2
			c0-0.7-0.1-1.4-0.4-2C117,11.8,116.6,11.2,116.2,10.8 M115,15.5c-0.1,0.3-0.3,0.7-0.6,0.9c-0.2,0.3-0.5,0.5-0.9,0.6
			c-0.7,0.3-1.4,0.3-2.1,0c-0.3-0.1-0.6-0.4-0.9-0.6c-0.3-0.3-0.5-0.6-0.6-0.9c-0.2-0.4-0.2-0.7-0.2-1.1c0-0.4,0.1-0.8,0.2-1.1
			c0.3-0.7,0.8-1.2,1.4-1.5c0.7-0.3,1.4-0.3,2.1,0c0.7,0.3,1.2,0.9,1.4,1.5c0.1,0.4,0.2,0.8,0.2,1.1C115.3,14.7,115.2,15.1,115,15.5
			"/>
		<path class="st0" d="M124.8,9.7c-0.4-0.2-0.8-0.3-1.3-0.3c-0.4,0-0.7,0.1-1.1,0.3c-0.4,0.2-0.7,0.6-0.9,0.9V10
			c0-0.2-0.2-0.4-0.4-0.4h-1.7c-0.2,0-0.4,0.2-0.4,0.4v8.7c0,0.2,0.2,0.4,0.4,0.4h0h1.6c0.2,0,0.4-0.2,0.4-0.4v0v-5
			c0-0.3,0-0.7,0.2-1c0.1-0.2,0.2-0.5,0.4-0.6c0.1-0.2,0.3-0.3,0.5-0.4c0.4-0.2,1-0.1,1.3,0.2c0.2,0.1,0.3,0.2,0.4,0.4
			c0.2,0.1,0.4,0.1,0.5,0c0,0,0,0,0,0l0.9-1.4c0.1-0.1,0.1-0.3,0-0.5C125.5,10.1,125.2,9.9,124.8,9.7"/>
		<path class="st0" d="M134.6,9.6h-1.4c-0.2,0-0.4,0.1-0.5,0.4l-1.8,5.3c0,0.1-0.1,0.1-0.2,0.1c-0.1,0-0.1-0.1-0.1-0.1l-1.9-5.3
			c-0.1-0.2-0.3-0.4-0.5-0.4h-1.4c-0.3,0-0.5,0.2-0.5,0.5c0,0.1,0,0.1,0,0.2l3.3,8.6c0,0.1,0,0.3,0,0.4l-0.3,0.8
			c-0.1,0.4-0.4,0.7-0.7,0.9c-0.3,0.2-0.7,0.3-1,0.3c-0.2,0-0.4,0-0.6-0.1c-0.1,0-0.2-0.1-0.3-0.1c-0.2-0.1-0.2,0.1-0.1,0.2l0.5,1.3
			c0.1,0.3,0.3,0.5,0.6,0.6c0.1,0,0.2,0,0.4,0c0.7,0,1.3-0.2,1.8-0.6c0.6-0.5,1-1.1,1.3-1.8l4-10.5c0.1-0.3,0-0.6-0.3-0.7
			C134.8,9.6,134.8,9.6,134.6,9.6"/>
	</g>
	<g>
		<path class="st0" d="M21.1,3.2c0.5,0,1-0.4,1-1s-0.4-1-1-1c-0.5,0-1,0.4-1,1c0,0,0,0,0,0C20.1,2.8,20.5,3.2,21.1,3.2
			C21.1,3.2,21.1,3.2,21.1,3.2"/>
		<path class="st0" d="M25.2,5.4c0.5,0,1-0.4,1-1s-0.4-1-1-1c-0.5,0-1,0.4-1,1v0C24.3,5,24.7,5.4,25.2,5.4
			C25.2,5.4,25.2,5.4,25.2,5.4"/>
		<path class="st0" d="M27.7,9.5c0.5,0,1-0.4,1-1s-0.4-1-1-1c-0.5,0-1,0.4-1,1v0C26.7,9.1,27.2,9.5,27.7,9.5"/>
		<path class="st0" d="M16.7,15.2c2.5-2.3,5.1-5.4,6.4-8.1c0-0.1,0.1-0.1,0.1,0c0,0,0,0,0,0c0,0,0,0.1,0.1,0.1l0.1,0.2
			c0,0.1,0.1,0.1,0.2,0.1c0,0,0.1,0,0.1-0.1l0.6-2.1c0-0.1,0-0.1-0.1-0.1c0,0-0.1,0-0.1,0l-1.9,1.2c-0.1,0-0.1,0.1,0,0.2
			c0,0,0.1,0.1,0.1,0.1l0.3,0c0.1,0,0.1,0,0.2,0c0.1,0,0.1,0.1,0.1,0.1c0,0,0,0,0,0c-0.2,0.3-0.5,0.8-1,1.4V6.6
			c0-0.3-0.3-0.6-0.6-0.6l0,0h-0.9c-0.3,0-0.6,0.3-0.6,0.6c0,0,0,0,0,0v4.1c-0.7,0.8-1.5,1.6-2.4,2.5V9.6c0-0.4-0.3-0.7-0.7-0.7
			h-0.8c-0.4,0-0.7,0.3-0.7,0.7l0,0v5.5c-0.6,0.5-1.1,0.9-1.8,1.4c-0.3,0.2-0.6,0.4-0.9,0.6v-3c0-0.3-0.2-0.5-0.6-0.5c0,0,0,0,0,0
			h-1c-0.3,0-0.5,0.2-0.5,0.5v4.3c-0.1,0-0.1,0-0.2-0.1C10.1,18.2,10,18,9.9,18C8.7,16.4,8,14.4,8,12.4c-0.1-2.5,0.8-5,2.6-6.8
			c1.7-1.9,4.1-3,6.6-3.2c0.3,0,0.5,0,0.8,0c0.1,0,0.2-0.1,0.3-0.2l0.1-0.2c0.1-0.1,0-0.2-0.1-0.3c0,0-0.1,0-0.1,0
			c-0.3,0-0.5,0-0.8,0c-2.8,0.1-5.4,1.3-7.2,3.3c-3.5,3.7-3.7,9.4-0.5,13.4c0.1,0.1,0.1,0.3,0,0.4c0,0,0,0,0,0
			c-0.6,0.3-1.2,0.7-1.9,1c-0.3,0.1-0.4,0.5-0.2,0.7c0,0,0,0,0,0l0,0.1c0.2,0.2,0.5,0.3,0.7,0.2C9.6,20.3,13.9,17.8,16.7,15.2"/>
		<path class="st0" d="M23.6,7.8C23.6,7.8,23.5,7.8,23.6,7.8c-0.2,0-0.4,0-0.5,0.1c0.4,1.8,0.4,3.6,0.1,5.3
			c-0.3,1.8-1.1,4.3-2.9,4.7c-1.8,0.4-3-0.3-2.8,0.6c0.1,0.6,1,0.8,1.6,0.9c0.1,0,0.2,0.1,0.2,0.2c0,0.1,0,0.1-0.1,0.1
			c-1,0.6-4.3,1.2-7.5-0.3l0,0l-0.3,0.2c-0.1,0.1-0.2,0.3-0.1,0.4c0,0,0,0.1,0.1,0.1c4.2,3.2,10.4,3.1,14.1-0.8
			c2.3-2.4,3.2-5.8,2.5-9.1c0-0.2-0.2-0.4-0.4-0.4c-0.1,0-0.2,0-0.2-0.1c-0.6-0.3-0.9-1-0.6-1.6c0-0.1,0.1-0.2,0.2-0.3
			c0.1-0.2,0.2-0.4,0-0.6c-0.3-0.5-0.6-0.9-0.9-1.3c-0.1-0.2-0.3-0.3-0.6-0.2h-0.1c-0.1,0-0.2,0-0.3,0c-0.3-0.1-0.6,0.1-0.6,0.4
			c0,0,0,0,0,0l-0.4,1.5C23.9,7.5,23.7,7.8,23.6,7.8"/>
	</g>
</g>
</svg>
